<?xml version="1.0" encoding="UTF-8"?>
<svg xmlns="http://www.w3.org/2000/svg" xmlns:xlink="http://www.w3.org/1999/xlink" viewBox="0 0 1920 1080">
  <defs>
    <style>
      .cls-1 {
        fill: url(#Dégradé_sans_nom_426);
      }

      .cls-1, .cls-2, .cls-3, .cls-4, .cls-5, .cls-6, .cls-7, .cls-8, .cls-9, .cls-10, .cls-11, .cls-12, .cls-13, .cls-14, .cls-15, .cls-16, .cls-17, .cls-18, .cls-19, .cls-20, .cls-21, .cls-22, .cls-23, .cls-24, .cls-25, .cls-26, .cls-27, .cls-28, .cls-29, .cls-30, .cls-31 {
        stroke-width: 0px;
      }

      .cls-2 {
        fill: url(#Dégradé_sans_nom_426-2);
      }

      .cls-3 {
        fill: url(#Dégradé_sans_nom_250-2);
      }

      .cls-4 {
        fill: url(#Dégradé_sans_nom_305-8);
      }

      .cls-5 {
        fill: url(#Dégradé_sans_nom_305);
      }

      .cls-6 {
        fill: url(#Dégradé_sans_nom_305-10);
      }

      .cls-7 {
        fill: url(#Dégradé_sans_nom_305-9);
      }

      .cls-8 {
        fill: url(#Dégradé_sans_nom_426-4);
      }

      .cls-9 {
        fill: url(#Dégradé_sans_nom_426-3);
      }

      .cls-10 {
        fill: url(#Dégradé_sans_nom_305-18);
      }

      .cls-11 {
        fill: url(#Dégradé_sans_nom_252);
      }

      .cls-12 {
        fill: url(#Dégradé_sans_nom_305-11);
      }

      .cls-14 {
        fill: url(#Dégradé_sans_nom_305-7);
      }

      .cls-15 {
        fill: url(#Dégradé_sans_nom_250-3);
      }

      .cls-16 {
        fill: url(#Dégradé_sans_nom_96);
      }

      .cls-17 {
        fill: url(#Dégradé_sans_nom_305-15);
      }

      .cls-18 {
        fill: url(#Dégradé_sans_nom_250);
      }

      .cls-19 {
        fill: url(#Dégradé_sans_nom_269);
      }

      .cls-20 {
        fill: url(#Dégradé_sans_nom_305-5);
      }

      .cls-21 {
        fill: url(#Dégradé_sans_nom_305-6);
      }

      .cls-22 {
        fill: url(#Dégradé_sans_nom_305-16);
      }

      .cls-23 {
        fill: url(#Dégradé_sans_nom_305-19);
      }

      .cls-24 {
        fill: url(#Dégradé_sans_nom_305-3);
      }

      .cls-25 {
        fill: url(#Dégradé_sans_nom_426-5);
      }

      .cls-26 {
        fill: url(#Dégradé_sans_nom_305-4);
      }

      .cls-27 {
        fill: url(#Dégradé_sans_nom_305-14);
      }

      .cls-28 {
        fill: url(#Dégradé_sans_nom_305-17);
      }

      .cls-29 {
        fill: url(#Dégradé_sans_nom_305-2);
      }

      .cls-30 {
        fill: url(#Dégradé_sans_nom_305-13);
      }

      .cls-31 {
        fill: url(#Dégradé_sans_nom_305-12);
      }
    </style>
    <linearGradient id="Dégradé_sans_nom_252" data-name="Dégradé sans nom 252" x1="960" y1="1072.28" x2="960" y2="8.48" gradientUnits="userSpaceOnUse">
      <stop offset="0" stop-color="#000" stop-opacity=".7"/>
      <stop offset=".25" stop-color="#030206" stop-opacity=".74"/>
      <stop offset=".61" stop-color="#0b071a" stop-opacity=".84"/>
      <stop offset="1" stop-color="#181037"/>
    </linearGradient>
    <linearGradient id="Dégradé_sans_nom_426" data-name="Dégradé sans nom 426" x1="1281.35" y1="113.42" x2="1288.08" y2="168.63" gradientUnits="userSpaceOnUse">
      <stop offset="0" stop-color="#b3b3b3" stop-opacity=".8"/>
      <stop offset="0" stop-color="#b3b2b3" stop-opacity=".8"/>
      <stop offset=".4" stop-color="#c7b2c5" stop-opacity=".86"/>
      <stop offset=".74" stop-color="#d3b2d0" stop-opacity=".89"/>
      <stop offset="1" stop-color="#d8b2d4" stop-opacity=".9"/>
    </linearGradient>
    <linearGradient id="Dégradé_sans_nom_250" data-name="Dégradé sans nom 250" x1="537.31" y1="142.37" x2="533.24" y2="1335.13" gradientUnits="userSpaceOnUse">
      <stop offset="0" stop-color="#fff"/>
      <stop offset=".02" stop-color="#f9f8f9"/>
      <stop offset=".05" stop-color="#ebe7e8"/>
      <stop offset=".08" stop-color="#d3cbcc"/>
      <stop offset=".12" stop-color="#b1a3a5"/>
      <stop offset=".16" stop-color="#867174"/>
      <stop offset=".19" stop-color="#54363a"/>
    </linearGradient>
    <linearGradient id="Dégradé_sans_nom_250-2" data-name="Dégradé sans nom 250" x1="1442.79" y1="157.1" x2="1438.77" y2="1336.93" xlink:href="#Dégradé_sans_nom_250"/>
    <linearGradient id="Dégradé_sans_nom_250-3" data-name="Dégradé sans nom 250" x1="1017.11" y1="700.33" x2="1016.13" y2="986.2" xlink:href="#Dégradé_sans_nom_250"/>
    <linearGradient id="Dégradé_sans_nom_305" data-name="Dégradé sans nom 305" x1="509.72" y1="770.4" x2="509.72" y2="416.75" gradientUnits="userSpaceOnUse">
      <stop offset="0" stop-color="#000" stop-opacity=".7"/>
      <stop offset=".01" stop-color="#010002" stop-opacity=".71"/>
      <stop offset=".14" stop-color="#0b0719" stop-opacity=".84"/>
      <stop offset=".28" stop-color="#120c2a" stop-opacity=".93"/>
      <stop offset=".44" stop-color="#160f33" stop-opacity=".98"/>
      <stop offset=".64" stop-color="#181037"/>
      <stop offset=".78" stop-color="#191138"/>
      <stop offset=".82" stop-color="#20183e"/>
      <stop offset=".86" stop-color="#2b2448"/>
      <stop offset=".89" stop-color="#3c3556"/>
      <stop offset=".91" stop-color="#514b68"/>
      <stop offset=".93" stop-color="#6b667f"/>
      <stop offset=".95" stop-color="#8b879a"/>
      <stop offset=".97" stop-color="#afacba"/>
      <stop offset=".99" stop-color="#d7d5dc"/>
      <stop offset="1" stop-color="#fff"/>
    </linearGradient>
    <linearGradient id="Dégradé_sans_nom_305-2" data-name="Dégradé sans nom 305" x1="590.81" y1="835.28" x2="590.81" y2="481.63" xlink:href="#Dégradé_sans_nom_305"/>
    <linearGradient id="Dégradé_sans_nom_305-3" data-name="Dégradé sans nom 305" x1="660.96" y1="880.6" x2="660.96" y2="526.95" xlink:href="#Dégradé_sans_nom_305"/>
    <linearGradient id="Dégradé_sans_nom_305-4" data-name="Dégradé sans nom 305" x1="748.35" y1="859.15" x2="748.35" y2="505.5" xlink:href="#Dégradé_sans_nom_305"/>
    <linearGradient id="Dégradé_sans_nom_305-5" data-name="Dégradé sans nom 305" x1="1481.27" y1="879.08" x2="1481.27" y2="431.67" xlink:href="#Dégradé_sans_nom_305"/>
    <linearGradient id="Dégradé_sans_nom_305-6" data-name="Dégradé sans nom 305" x1="1846.04" y1="786.25" x2="1846.04" y2="338.84" xlink:href="#Dégradé_sans_nom_305"/>
    <linearGradient id="Dégradé_sans_nom_305-7" data-name="Dégradé sans nom 305" x1="1294.42" y1="885.64" x2="1294.42" y2="301.67" xlink:href="#Dégradé_sans_nom_305"/>
    <linearGradient id="Dégradé_sans_nom_305-8" data-name="Dégradé sans nom 305" x1="901.29" y1="873.49" x2="901.29" y2="707.01" xlink:href="#Dégradé_sans_nom_305"/>
    <linearGradient id="Dégradé_sans_nom_305-9" data-name="Dégradé sans nom 305" x1="867.67" y1="867.36" x2="867.67" y2="700.89" xlink:href="#Dégradé_sans_nom_305"/>
    <linearGradient id="Dégradé_sans_nom_305-10" data-name="Dégradé sans nom 305" x1="841.69" y1="868.47" x2="841.69" y2="767.02" xlink:href="#Dégradé_sans_nom_305"/>
    <linearGradient id="Dégradé_sans_nom_305-11" data-name="Dégradé sans nom 305" x1="1033.65" y1="878.58" x2="1033.65" y2="811.8" xlink:href="#Dégradé_sans_nom_305"/>
    <linearGradient id="Dégradé_sans_nom_305-12" data-name="Dégradé sans nom 305" x1="1042.26" y1="874.55" x2="1042.26" y2="819.38" xlink:href="#Dégradé_sans_nom_305"/>
    <linearGradient id="Dégradé_sans_nom_305-13" data-name="Dégradé sans nom 305" x1="1060.25" y1="874.52" x2="1060.25" y2="814.44" xlink:href="#Dégradé_sans_nom_305"/>
    <linearGradient id="Dégradé_sans_nom_305-14" data-name="Dégradé sans nom 305" x1="1084.59" y1="876.42" x2="1084.59" y2="790.83" xlink:href="#Dégradé_sans_nom_305"/>
    <linearGradient id="Dégradé_sans_nom_305-15" data-name="Dégradé sans nom 305" x1="1074.37" y1="889.77" x2="1074.37" y2="804.19" xlink:href="#Dégradé_sans_nom_305"/>
    <linearGradient id="Dégradé_sans_nom_305-16" data-name="Dégradé sans nom 305" x1="1097.94" y1="899.64" x2="1097.94" y2="814.06" xlink:href="#Dégradé_sans_nom_305"/>
    <linearGradient id="Dégradé_sans_nom_96" data-name="Dégradé sans nom 96" x1="960" y1="1077.18" x2="960" y2="661.44" gradientUnits="userSpaceOnUse">
      <stop offset="0" stop-color="gray" stop-opacity=".9"/>
      <stop offset=".06" stop-color="#5f6c6f" stop-opacity=".93"/>
      <stop offset=".12" stop-color="#415a60" stop-opacity=".95"/>
      <stop offset=".2" stop-color="#294b54" stop-opacity=".97"/>
      <stop offset=".29" stop-color="#163f4b" stop-opacity=".98"/>
      <stop offset=".41" stop-color="#093744" stop-opacity=".99"/>
      <stop offset=".56" stop-color="#023341" stop-opacity="1"/>
      <stop offset="1" stop-color="#003240"/>
    </linearGradient>
    <linearGradient id="Dégradé_sans_nom_426-2" data-name="Dégradé sans nom 426" x1="1268.22" y1="439.93" x2="1274.35" y2="490.17" xlink:href="#Dégradé_sans_nom_426"/>
    <linearGradient id="Dégradé_sans_nom_305-17" data-name="Dégradé sans nom 305" x1="199.43" y1="1073" x2="199.43" y2="41.08" xlink:href="#Dégradé_sans_nom_305"/>
    <linearGradient id="Dégradé_sans_nom_305-18" data-name="Dégradé sans nom 305" x1="1173.7" y1="1075.55" x2="1173.7" y2="419.02" xlink:href="#Dégradé_sans_nom_305"/>
    <linearGradient id="Dégradé_sans_nom_305-19" data-name="Dégradé sans nom 305" x1="1711.77" y1="1074.16" x2="1711.77" y2="213.93" xlink:href="#Dégradé_sans_nom_305"/>
    <linearGradient id="Dégradé_sans_nom_269" data-name="Dégradé sans nom 269" x1="1016.69" y1="874.62" x2="1016.69" y2="702.77" gradientUnits="userSpaceOnUse">
      <stop offset="0" stop-color="#000" stop-opacity=".5"/>
      <stop offset="1" stop-color="#0071bc" stop-opacity=".5"/>
    </linearGradient>
    <linearGradient id="Dégradé_sans_nom_426-3" data-name="Dégradé sans nom 426" x1="629.73" y1="377.95" x2="635.48" y2="425.07" xlink:href="#Dégradé_sans_nom_426"/>
    <linearGradient id="Dégradé_sans_nom_426-4" data-name="Dégradé sans nom 426" x1="1748.01" y1="345.48" x2="1753.48" y2="390.36" xlink:href="#Dégradé_sans_nom_426"/>
    <linearGradient id="Dégradé_sans_nom_426-5" data-name="Dégradé sans nom 426" x1="216.76" y1="87.71" x2="223.74" y2="144.99" xlink:href="#Dégradé_sans_nom_426"/>
  </defs>
  <g id="Calque_1" data-name="Calque 1">
    <g>
      <rect class="cls-11" x=".5" y=".5" width="1919" height="1079"/>
      <path class="cls-13" d="m1919,1v1078H1V1h1918m1-1H0v1080h1920V0h0Z"/>
    </g>
  </g>
  <g id="Calque_3" data-name="Calque 3">
    <path class="cls-1" d="m1554,161c-12,2-24,8-35,13-11,4-23,6-34,8-16,2-32,3-48-1-27-7-54-10-82-13-5-1-12-2-16-6-6-7-10-17-17-20-20-6-39-15-59-21-25-7-49,2-72,10-43,13-89,4-135,10-36,5-71,16-107,19-14,1-27,3-42-3-5.26-1.88-10.62-3.09-16.07-3.82,1.1.45,2.18.94,3.07,1.82,4,2,5,8,9,11,12,7,24,6,36,14,14,11,33,12,50,13,43,4,84,1,127-9,10-3,21-6,28,0,9,8,20,9,30,8,2-1,5-3,7-3,23,0,44-2,66-11,14-6,31,2,44,10,15,10,28,19,46,20,29,2,59,3,89-6,25-7,53,4,80,0,28-3,54-14,82-18,27-5,56,1,80-10,5.16-2.37,10.33-3.57,15.5-4.07-43.94-8.54-85.34-15.65-129.5-8.93Z"/>
    <path class="cls-18" d="m1001,790s3-4,7-4c27,0,74-6,61-42-2.57-8.46-4.19-16.64-4.82-24.66-27.04,15.66-56.22,26.82-88.18,35.66-14,4-24,13-35,25-7,6-17,5-24,6-23,4-44,11-65,21-16-31-41-56-55-90-10-25-24-47-28-74,0-5-5-9-7-14-21-71-63-128-120-176-4-3-8-8-12-12-3-4-9-6-12-11-2-1-2-5-4-7-12-15-28-22-39-39,0-1-5-1-5-3,0-4-3-6-5-7-11-8-20-21-29-31s-12-23-25-29c0-1,1-4,0-5-8-4-13-10-18-16-16-16-38-32-55-49-26-25-41-57-56-89-1-2-5,5-7,8-17,24-40,39-65,52-18,10-35,19-52,29-5,3-11,2-16,5-13,9-26,18-33,32-8,16-22,27-35,40s-25,27-40,39c-4,3-9,4-11,7-3,2-5,6-8,9-31,25-59,48-80,83-12.56,21.53-21.11,43.85-35,64.1v168c10.22-2.61,21.69-3.15,31-6.09,15-4,30,1,45-2,57-10,111-5,166,0,68,6,132,18,197,40,9,3,19,2,29,3,5,0,9,4,14,5,49,7,94,23,140,38,5,2,8,6,13,7,11,3,20,7,30,11,19,6,37,13,54,21,54,25,108,49,168,59,15.15,2.89,30.04,4.72,44.81,5.99,2.45-11.39,12.41-20.24,25.19-23.99,2,0,4-4,6-4,28-4,36-31,38-55Z"/>
    <path class="cls-3" d="m1918,581c-9-8-12-20-22-27-21-14-40-26-55-45-2-1-5-1-7-2-22-22-49-36-68-61-2-2-6-2-8-4-10-13-20-25-32-36-7-7-16-11-23-18-4-5-9-10-13-15-4-3-10-4-12-7-3-5-5-9-9-12-2-1-5,0-7-1-2-2-4-5-6-7-4-3-10-4-14-7-12-13-27-22-43-32-2-1-3-4-7-7-3-3-6-8-9-12-18-21-40-35-53-59-1-2-5-2-6-4-9-21-19-41-36-55-2-1-3,8-4,11-9,50-29,93-59,134-6,7-5,16-11,22-6,8-12,15-17,23-26,43-52,80-81,123-11,17-26,31-34,49-11,24-30,44-55,53-2,1-2,5-3,5-11,5-18,15-28,20-26,11-48,25-67,45-12,11-15,28-28,39-4.15,3.37-8.36,6.57-12.61,9.64,4.01,19.28,9.32,37.8,12.61,58.36,3,15-6,22-17,28-8,5-14,14-23,15-14,2-27,3-38,8-9,5-7,18-12,27-9,17-29,20-46,28-2.22,1.67-2.9,4.26-3.58,6.93,16.16.79,32.29,1.28,48.58,2.07,7,0,14-3,21-3,127,2,251,9,381-21,42-10,85,3,128-7,37-8,68-26,100-50,38-30,82-43,128-55,43-12,86-13,124-34,16.65-9.64,19.48-30.8,28-48.67v-76.29c-.69-.28-1.37-.61-2-1.04Z"/>
    <path class="cls-15" d="m965,868c17-8,37-11,46-28,5-9,3-22,12-27,11-5,24-6,38-8,9-1,15-10,23-15,11-6,20-13,17-28-3.29-20.55-8.6-39.08-12.61-58.36-7.88,5.69-15.95,10.91-24.21,15.7.63,8.02,2.25,16.2,4.82,24.66,13,36-34,42-61,42-4,0-7,4-7,4-2,24-10,51-38,55-2,0-4,4-6,4-12.78,3.76-22.74,12.61-25.19,23.99,9.91.85,19.76,1.45,29.61,1.93.68-2.66,1.36-5.26,3.58-6.93Z"/>
  </g>
  <g id="Calque_5" data-name="Calque 5">
    <path class="cls-5" d="m552.26,692.27c-10.54-.67-21.25-.76-31.85-1.4-1.67-.37-6.11.37-5.56-.37,1.67-2.58,3.89-5.54,6.67-8.12,2.22-1.85,5-5.17,7.78-6.64,8.34-4.06,12.23-9.96,17.23-15.87.18-.19.36-.37.54-.56l-15.63-99.48c-2.99-.54-5.8-1.37-8.25-2.55-8.85-4.15-1.61-11.53,5.28-16.39l-19.93-126.8-13.22,87.8c1.99,2.46,4.46,4.81,6.75,7.41,2.22,2.21,1.67,4.43.56,6.27-2.22,4.43-5,10.33.56,14.02-2.78,0-4.45-1.48-5-2.21-1.11-2.21-4.45-3.32-5-4.8-.2-1.26-.33-2.51-.41-3.75l-9.18,60.97c.75.85,1.53,1.71,2.36,2.56,3.89,3.69,5,7.38,6.67,11.44-4.35,0-8.02,1.36-11.54,2.65l-5.55,36.88c3.6-.36,7.18-.29,10.43.32,3.34.74,6.11,1.85,10.01,1.48,1.67-.74,1.67-2.58,3.34-2.95,3.34-.74,7.78,1.85,8.89,4.8.56,1.11,4.45.74,7.23.74-1.11.74-2.22,1.48-3.89,1.48-10.01.37-19.46,1.48-27.79,5.9-1.67.74-6.67,0-7.78,1.11-.85.79-1.76,1.54-2.7,2.27l-18.72,124.31h110.39l-12.65-80.53Z"/>
    <path class="cls-29" d="m633.35,757.15c-10.54-.67-21.25-.76-31.85-1.4-1.67-.37-6.11.37-5.56-.37,1.67-2.58,3.89-5.54,6.67-8.12,2.22-1.85,5-5.17,7.78-6.64,8.34-4.06,12.23-9.96,17.23-15.87.18-.19.36-.37.54-.56l-15.63-99.48c-2.99-.54-5.8-1.37-8.25-2.55-8.85-4.15-1.61-11.53,5.28-16.39l-19.93-126.8-13.22,87.8c1.99,2.46,4.46,4.81,6.75,7.41,2.22,2.21,1.67,4.43.56,6.27-2.22,4.43-5,10.33.56,14.02-2.78,0-4.45-1.48-5-2.21-1.11-2.21-4.45-3.32-5-4.8-.2-1.26-.33-2.51-.41-3.75l-9.18,60.97c.75.85,1.53,1.71,2.36,2.56,3.89,3.69,5,7.38,6.67,11.44-4.35,0-8.02,1.36-11.54,2.65l-5.55,36.88c3.6-.36,7.18-.29,10.43.32,3.34.74,6.11,1.85,10.01,1.48,1.67-.74,1.67-2.58,3.34-2.95,3.34-.74,7.78,1.85,8.89,4.8.56,1.11,4.45.74,7.23.74-1.11.74-2.22,1.48-3.89,1.48-10.01.37-19.46,1.48-27.79,5.9-1.67.74-6.67,0-7.78,1.11-.85.79-1.76,1.54-2.7,2.27l-18.72,124.31h110.39l-12.65-80.53Z"/>
    <path class="cls-24" d="m703.5,802.47c-10.54-.67-21.25-.76-31.85-1.4-1.67-.37-6.11.37-5.56-.37,1.67-2.58,3.89-5.54,6.67-8.12,2.22-1.85,5-5.17,7.78-6.64,8.34-4.06,12.23-9.96,17.23-15.87.18-.19.36-.37.54-.56l-15.63-99.48c-2.99-.54-5.8-1.37-8.25-2.55-8.85-4.15-1.61-11.53,5.28-16.39l-19.93-126.8-13.22,87.8c1.99,2.46,4.46,4.81,6.75,7.41,2.22,2.21,1.67,4.43.56,6.27-2.22,4.43-5,10.33.56,14.02-2.78,0-4.45-1.48-5-2.21-1.11-2.21-4.45-3.32-5-4.8-.2-1.26-.33-2.51-.41-3.75l-9.18,60.97c.75.85,1.53,1.71,2.36,2.56,3.89,3.69,5,7.38,6.67,11.44-4.35,0-8.02,1.36-11.54,2.65l-5.55,36.88c3.6-.36,7.18-.29,10.43.32,3.34.74,6.11,1.85,10.01,1.48,1.67-.74,1.67-2.58,3.34-2.95,3.34-.74,7.78,1.85,8.89,4.8.56,1.11,4.45.74,7.23.74-1.11.74-2.22,1.48-3.89,1.48-10.01.37-19.46,1.48-27.79,5.9-1.67.74-6.67,0-7.78,1.11-.85.79-1.76,1.54-2.7,2.27l-18.72,124.31h110.39l-12.65-80.53Z"/>
    <path class="cls-26" d="m790.89,781.02c-10.54-.67-21.25-.76-31.85-1.4-1.67-.37-6.11.37-5.56-.37,1.67-2.58,3.89-5.54,6.67-8.12,2.22-1.85,5-5.17,7.78-6.64,8.34-4.06,12.23-9.96,17.23-15.87.18-.19.36-.37.54-.56l-15.63-99.48c-2.99-.54-5.8-1.37-8.25-2.55-8.85-4.15-1.61-11.53,5.28-16.39l-19.93-126.8-13.22,87.8c1.99,2.46,4.46,4.81,6.75,7.41,2.22,2.21,1.67,4.43.56,6.27-2.22,4.43-5,10.33.56,14.02-2.78,0-4.45-1.48-5-2.21-1.11-2.21-4.45-3.32-5-4.8-.2-1.26-.33-2.51-.41-3.75l-9.18,60.97c.75.85,1.53,1.71,2.36,2.56,3.89,3.69,5,7.38,6.67,11.44-4.35,0-8.02,1.36-11.54,2.65l-5.55,36.88c3.6-.36,7.18-.29,10.43.32,3.34.74,6.11,1.85,10.01,1.48,1.67-.74,1.67-2.58,3.34-2.95,3.34-.74,7.78,1.85,8.89,4.8.56,1.11,4.45.74,7.23.74-1.11.74-2.22,1.48-3.89,1.48-10.01.37-19.46,1.48-27.79,5.9-1.67.74-6.67,0-7.78,1.11-.85.79-1.76,1.54-2.7,2.27l-18.72,124.31h110.39l-12.65-80.53Z"/>
    <path class="cls-20" d="m1535.09,780.24c-13.33-.85-26.88-.96-40.29-1.77-2.11-.47-7.74.47-7.03-.47,2.11-3.27,4.92-7,8.44-10.27,2.81-2.33,6.33-6.54,9.85-8.4,10.55-5.14,15.47-12.61,21.8-20.08.23-.24.46-.47.68-.71l-19.78-125.85c-3.78-.69-7.34-1.73-10.44-3.23-11.2-5.25-2.04-14.59,6.68-20.74l-25.21-160.41-16.73,111.08c2.52,3.12,5.65,6.09,8.54,9.37,2.81,2.8,2.11,5.6.7,7.94-2.81,5.6-6.33,13.07.7,17.74-3.52,0-5.63-1.87-6.33-2.8-1.41-2.8-5.63-4.2-6.33-6.07-.26-1.59-.42-3.17-.51-4.75l-11.62,77.14c.95,1.08,1.94,2.16,2.99,3.24,4.92,4.67,6.33,9.34,8.44,14.47-5.5,0-10.15,1.72-14.6,3.36l-7.03,46.66c4.55-.46,9.09-.37,13.19.41,4.22.93,7.74,2.33,12.66,1.87,2.11-.93,2.11-3.27,4.22-3.73,4.22-.93,9.85,2.33,11.25,6.07.7,1.4,5.63.93,9.14.93-1.41.93-2.81,1.87-4.92,1.87-12.66.47-24.61,1.87-35.16,7.47-2.11.93-8.44,0-9.85,1.4-1.08,1-2.23,1.95-3.41,2.87l-23.69,157.27h139.66l-16.01-101.87Z"/>
    <path class="cls-21" d="m1899.86,687.41c-13.33-.85-26.88-.96-40.29-1.77-2.11-.47-7.74.47-7.03-.47,2.11-3.27,4.92-7,8.44-10.27,2.81-2.33,6.33-6.54,9.85-8.4,10.55-5.14,15.47-12.61,21.8-20.08.23-.24.46-.47.68-.71l-19.78-125.85c-3.78-.69-7.34-1.73-10.44-3.23-11.2-5.25-2.04-14.59,6.68-20.74l-25.21-160.41-16.73,111.08c2.52,3.12,5.65,6.09,8.54,9.37,2.81,2.8,2.11,5.6.7,7.94-2.81,5.6-6.33,13.07.7,17.74-3.52,0-5.63-1.87-6.33-2.8-1.41-2.8-5.63-4.2-6.33-6.07-.26-1.59-.42-3.17-.51-4.75l-11.62,77.14c.95,1.08,1.94,2.16,2.99,3.24,4.92,4.67,6.33,9.34,8.44,14.47-5.5,0-10.15,1.72-14.6,3.36l-7.03,46.66c4.55-.46,9.09-.37,13.19.41,4.22.93,7.74,2.33,12.66,1.87,2.11-.93,2.11-3.27,4.22-3.73,4.22-.93,9.85,2.33,11.25,6.07.7,1.4,5.63.93,9.14.93-1.41.93-2.81,1.87-4.92,1.87-12.66.47-24.61,1.87-35.16,7.47-2.11.93-8.44,0-9.85,1.4-1.08,1-2.23,1.95-3.41,2.87l-23.69,157.27h139.66l-16.01-101.87Z"/>
    <path class="cls-14" d="m1364.66,756.63c-17.4-1.11-35.08-1.25-52.59-2.31-2.75-.61-10.1.61-9.18-.61,2.75-4.27,6.43-9.14,11.01-13.41,3.67-3.05,8.26-8.53,12.85-10.97,13.77-6.7,20.19-16.45,28.46-26.2.29-.31.59-.62.89-.93l-25.81-164.27c-4.94-.9-9.58-2.26-13.63-4.21-14.61-6.85-2.66-19.04,8.72-27.07l-32.9-209.38-21.84,144.99c3.29,4.07,7.37,7.94,11.14,12.24,3.67,3.66,2.75,7.31.92,10.36-3.67,7.31-8.26,17.06.92,23.16-4.59,0-7.34-2.44-8.26-3.66-1.84-3.66-7.34-5.48-8.26-7.92-.33-2.07-.55-4.14-.67-6.2l-15.16,100.68c1.25,1.41,2.53,2.82,3.9,4.23,6.43,6.09,8.26,12.19,11.01,18.89-7.18,0-13.24,2.24-19.06,4.38l-9.17,60.9c5.94-.6,11.86-.48,17.22.53,5.51,1.22,10.1,3.05,16.52,2.44,2.75-1.22,2.75-4.27,5.51-4.87,5.51-1.22,12.85,3.05,14.69,7.92.92,1.83,7.34,1.22,11.93,1.22-1.84,1.22-3.67,2.44-6.43,2.44-16.52.61-32.13,2.44-45.9,9.75-2.75,1.22-11.01,0-12.85,1.83-1.41,1.31-2.91,2.55-4.46,3.74l-30.92,205.27h182.29l-20.9-132.97Z"/>
    <path class="cls-4" d="m921.32,836.71c-4.96-.32-10-.36-14.99-.66-.79-.17-2.88.17-2.62-.17.79-1.22,1.83-2.61,3.14-3.82,1.05-.87,2.36-2.43,3.66-3.13,3.93-1.91,5.76-4.69,8.11-7.47.08-.09.17-.18.25-.26l-7.36-46.83c-1.41-.26-2.73-.64-3.89-1.2-4.17-1.95-.76-5.43,2.48-7.72l-9.38-59.69-6.22,41.33c.94,1.16,2.1,2.26,3.18,3.49,1.05,1.04.79,2.08.26,2.95-1.05,2.08-2.36,4.86.26,6.6-1.31,0-2.09-.69-2.36-1.04-.52-1.04-2.09-1.56-2.36-2.26-.1-.59-.16-1.18-.19-1.77l-4.32,28.7c.36.4.72.8,1.11,1.21,1.83,1.74,2.36,3.47,3.14,5.39-2.05,0-3.78.64-5.43,1.25l-2.61,17.36c1.69-.17,3.38-.14,4.91.15,1.57.35,2.88.87,4.71.69.79-.35.79-1.22,1.57-1.39,1.57-.35,3.66.87,4.19,2.26.26.52,2.09.35,3.4.35-.52.35-1.05.69-1.83.69-4.71.17-9.16.69-13.08,2.78-.79.35-3.14,0-3.66.52-.4.37-.83.73-1.27,1.07l-8.81,58.52h51.97l-5.96-37.91Z"/>
    <path class="cls-7" d="m887.69,830.58c-4.96-.32-10-.36-14.99-.66-.79-.17-2.88.17-2.62-.17.79-1.22,1.83-2.61,3.14-3.82,1.05-.87,2.36-2.43,3.66-3.13,3.93-1.91,5.76-4.69,8.11-7.47.08-.09.17-.18.25-.26l-7.36-46.83c-1.41-.26-2.73-.64-3.89-1.2-4.17-1.95-.76-5.43,2.48-7.72l-9.38-59.69-6.22,41.33c.94,1.16,2.1,2.26,3.18,3.49,1.05,1.04.79,2.08.26,2.95-1.05,2.08-2.36,4.86.26,6.6-1.31,0-2.09-.69-2.36-1.04-.52-1.04-2.09-1.56-2.36-2.26-.1-.59-.16-1.18-.19-1.77l-4.32,28.7c.36.4.72.8,1.11,1.21,1.83,1.74,2.36,3.47,3.14,5.39-2.05,0-3.78.64-5.43,1.25l-2.61,17.36c1.69-.17,3.38-.14,4.91.15,1.57.35,2.88.87,4.71.69.79-.35.79-1.22,1.57-1.39,1.57-.35,3.66.87,4.19,2.26.26.52,2.09.35,3.4.35-.52.35-1.05.69-1.83.69-4.71.17-9.16.69-13.08,2.78-.79.35-3.14,0-3.66.52-.4.37-.83.73-1.27,1.07l-8.81,58.52h51.97l-5.96-37.91Z"/>
    <path class="cls-6" d="m853.89,846.06c-3.02-.19-6.09-.22-9.14-.4-.48-.11-1.75.11-1.59-.11.48-.74,1.12-1.59,1.91-2.33.64-.53,1.44-1.48,2.23-1.91,2.39-1.16,3.51-2.86,4.94-4.55.05-.05.1-.11.16-.16l-4.48-28.54c-.86-.16-1.66-.39-2.37-.73-2.54-1.19-.46-3.31,1.51-4.7l-5.72-36.37-3.79,25.19c.57.71,1.28,1.38,1.94,2.13.64.64.48,1.27.16,1.8-.64,1.27-1.44,2.96.16,4.02-.8,0-1.28-.42-1.44-.64-.32-.64-1.28-.95-1.44-1.38-.06-.36-.09-.72-.12-1.08l-2.63,17.49c.22.24.44.49.68.74,1.12,1.06,1.44,2.12,1.91,3.28-1.25,0-2.3.39-3.31.76l-1.59,10.58c1.03-.1,2.06-.08,2.99.09.96.21,1.75.53,2.87.42.48-.21.48-.74.96-.85.96-.21,2.23.53,2.55,1.38.16.32,1.28.21,2.07.21-.32.21-.64.42-1.12.42-2.87.11-5.58.42-7.97,1.69-.48.21-1.91,0-2.23.32-.24.23-.5.44-.77.65l-5.37,35.66h31.67l-3.63-23.1Z"/>
    <path class="cls-12" d="m1041.68,863.83c-1.99-.13-4.01-.14-6.01-.26-.31-.07-1.15.07-1.05-.07.31-.49.73-1.05,1.26-1.53.42-.35.94-.98,1.47-1.25,1.57-.77,2.31-1.88,3.25-3,.03-.04.07-.07.1-.11l-2.95-18.79c-.56-.1-1.1-.26-1.56-.48-1.67-.78-.3-2.18,1-3.1l-3.76-23.94-2.5,16.58c.38.47.84.91,1.27,1.4.42.42.31.84.1,1.18-.42.84-.94,1.95.1,2.65-.52,0-.84-.28-.94-.42-.21-.42-.84-.63-.94-.91-.04-.24-.06-.47-.08-.71l-1.73,11.51c.14.16.29.32.45.48.73.7.94,1.39,1.26,2.16-.82,0-1.51.26-2.18.5l-1.05,6.96c.68-.07,1.36-.06,1.97.06.63.14,1.15.35,1.89.28.31-.14.31-.49.63-.56.63-.14,1.47.35,1.68.91.1.21.84.14,1.36.14-.21.14-.42.28-.73.28-1.89.07-3.67.28-5.25,1.12-.31.14-1.26,0-1.47.21-.16.15-.33.29-.51.43l-3.54,23.48h20.85l-2.39-15.21Z"/>
    <path class="cls-31" d="m1048.9,862.37c-1.64-.1-3.31-.12-4.97-.22-.26-.06-.95.06-.87-.06.26-.4.61-.86,1.04-1.27.35-.29.78-.81,1.21-1.04,1.3-.63,1.91-1.55,2.69-2.48.03-.03.06-.06.08-.09l-2.44-15.52c-.47-.08-.91-.21-1.29-.4-1.38-.65-.25-1.8.82-2.56l-3.11-19.78-2.06,13.7c.31.38.7.75,1.05,1.16.35.35.26.69.09.98-.35.69-.78,1.61.09,2.19-.43,0-.69-.23-.78-.35-.17-.35-.69-.52-.78-.75-.03-.2-.05-.39-.06-.59l-1.43,9.51c.12.13.24.27.37.4.61.58.78,1.15,1.04,1.78-.68,0-1.25.21-1.8.41l-.87,5.75c.56-.06,1.12-.05,1.63.05.52.12.95.29,1.56.23.26-.12.26-.4.52-.46.52-.12,1.21.29,1.39.75.09.17.69.12,1.13.12-.17.12-.35.23-.61.23-1.56.06-3.04.23-4.34.92-.26.12-1.04,0-1.21.17-.13.12-.27.24-.42.35l-2.92,19.39h17.22l-1.97-12.56Z"/>
    <path class="cls-30" d="m1067.48,861.25c-1.79-.11-3.61-.13-5.41-.24-.28-.06-1.04.06-.94-.06.28-.44.66-.94,1.13-1.38.38-.31.85-.88,1.32-1.13,1.42-.69,2.08-1.69,2.93-2.7.03-.03.06-.06.09-.1l-2.66-16.9c-.51-.09-.99-.23-1.4-.43-1.5-.7-.27-1.96.9-2.78l-3.39-21.54-2.25,14.92c.34.42.76.82,1.15,1.26.38.38.28.75.09,1.07-.38.75-.85,1.76.09,2.38-.47,0-.76-.25-.85-.38-.19-.38-.76-.56-.85-.81-.03-.21-.06-.43-.07-.64l-1.56,10.36c.13.15.26.29.4.44.66.63.85,1.25,1.13,1.94-.74,0-1.36.23-1.96.45l-.94,6.26c.61-.06,1.22-.05,1.77.05.57.13,1.04.31,1.7.25.28-.13.28-.44.57-.5.57-.13,1.32.31,1.51.81.09.19.76.13,1.23.13-.19.13-.38.25-.66.25-1.7.06-3.31.25-4.72,1-.28.13-1.13,0-1.32.19-.14.13-.3.26-.46.38l-3.18,21.12h18.75l-2.15-13.68Z"/>
    <path class="cls-27" d="m1094.88,857.51c-2.55-.16-5.14-.18-7.71-.34-.4-.09-1.48.09-1.35-.09.4-.63.94-1.34,1.61-1.96.54-.45,1.21-1.25,1.88-1.61,2.02-.98,2.96-2.41,4.17-3.84.04-.05.09-.09.13-.14l-3.78-24.07c-.72-.13-1.4-.33-2-.62-2.14-1-.39-2.79,1.28-3.97l-4.82-30.69-3.2,21.25c.48.6,1.08,1.16,1.63,1.79.54.54.4,1.07.13,1.52-.54,1.07-1.21,2.5.13,3.39-.67,0-1.08-.36-1.21-.54-.27-.54-1.08-.8-1.21-1.16-.05-.3-.08-.61-.1-.91l-2.22,14.76c.18.21.37.41.57.62.94.89,1.21,1.79,1.61,2.77-1.05,0-1.94.33-2.79.64l-1.34,8.92c.87-.09,1.74-.07,2.52.08.81.18,1.48.45,2.42.36.4-.18.4-.63.81-.71.81-.18,1.88.45,2.15,1.16.13.27,1.08.18,1.75.18-.27.18-.54.36-.94.36-2.42.09-4.71.36-6.73,1.43-.4.18-1.61,0-1.88.27-.21.19-.43.37-.65.55l-4.53,30.08h26.72l-3.06-19.49Z"/>
    <path class="cls-17" d="m1084.67,870.87c-2.55-.16-5.14-.18-7.71-.34-.4-.09-1.48.09-1.35-.09.4-.63.94-1.34,1.61-1.96.54-.45,1.21-1.25,1.88-1.61,2.02-.98,2.96-2.41,4.17-3.84.04-.05.09-.09.13-.14l-3.78-24.07c-.72-.13-1.4-.33-2-.62-2.14-1-.39-2.79,1.28-3.97l-4.82-30.69-3.2,21.25c.48.6,1.08,1.16,1.63,1.79.54.54.4,1.07.13,1.52-.54,1.07-1.21,2.5.13,3.39-.67,0-1.08-.36-1.21-.54-.27-.54-1.08-.8-1.21-1.16-.05-.3-.08-.61-.1-.91l-2.22,14.76c.18.21.37.41.57.62.94.89,1.21,1.79,1.61,2.77-1.05,0-1.94.33-2.79.64l-1.34,8.92c.87-.09,1.74-.07,2.52.08.81.18,1.48.45,2.42.36.4-.18.4-.63.81-.71.81-.18,1.88.45,2.15,1.16.13.27,1.08.18,1.75.18-.27.18-.54.36-.94.36-2.42.09-4.71.36-6.73,1.43-.4.18-1.61,0-1.88.27-.21.19-.43.37-.65.55l-4.53,30.08h26.72l-3.06-19.49Z"/>
    <path class="cls-22" d="m1108.24,880.74c-2.55-.16-5.14-.18-7.71-.34-.4-.09-1.48.09-1.35-.09.4-.63.94-1.34,1.61-1.96.54-.45,1.21-1.25,1.88-1.61,2.02-.98,2.96-2.41,4.17-3.84.04-.05.09-.09.13-.14l-3.78-24.07c-.72-.13-1.4-.33-2-.62-2.14-1-.39-2.79,1.28-3.97l-4.82-30.69-3.2,21.25c.48.6,1.08,1.16,1.63,1.79.54.54.4,1.07.13,1.52-.54,1.07-1.21,2.5.13,3.39-.67,0-1.08-.36-1.21-.54-.27-.54-1.08-.8-1.21-1.16-.05-.3-.08-.61-.1-.91l-2.22,14.76c.18.21.37.41.57.62.94.89,1.21,1.79,1.61,2.77-1.05,0-1.94.33-2.79.64l-1.34,8.92c.87-.09,1.74-.07,2.52.08.81.18,1.48.45,2.42.36.4-.18.4-.63.81-.71.81-.18,1.88.45,2.15,1.16.13.27,1.08.18,1.75.18-.27.18-.54.36-.94.36-2.42.09-4.71.36-6.73,1.43-.4.18-1.61,0-1.88.27-.21.19-.43.37-.65.55l-4.53,30.08h26.72l-3.06-19.49Z"/>
    <path class="cls-16" d="m1892,707c-38,21-81,22-124,34-46,12-90,25-128,55-32,24-63,42-100,50-43,10-86-3-128,7-130,30-254,23-381,21-7,0-14,3-21,3-41-2-81-2-123-10-60-10-114-34-168-59-17-8-35-15-54-21-10-4-19-8-30-11-5-1-8-5-13-7-46-15-91-31-140-38-5-1-9-5-14-5-10-1-20,0-29-3-65-22-129-34-197-40-55-5-109-10-166,0-15,3-30-2-45,2-9.31,2.94-20.78,3.48-31,6.09v388.91h1920v-421.67c-8.52,17.87-11.35,39.03-28,48.67Z"/>
  </g>
  <g id="Calque_2" data-name="Calque 2">
    <path class="cls-2" d="m1553.08,505.61c-26.27-4.83-52.54-5.27-78.8-12.9-23-6-46-2-68-9-15-4-23-18-35-28-5-4-11-7-17-9-6-1-12,1-17-1-17-8-34-7-52-8-6,0-14-6-16-5-37,13-73,18-110,30-17,6-31,18-47,28-4,2-9,0-13,1-2,1-4,3-6,3-8,0-16-1-24,1-23.37,5.56-46.74,7.41-70.11,8.13,39.42,6.01,78.93,11.53,119.11,6.87,17-2,32-6,49-10,9-2,17-5,26-8,21-7,32,10,44,27,4,6,16,7,25,4,10-4,20-7,30-7,26-2,51-2,78,2,29,4,53-11,81-14,28-2,56-5,83,2,5.92,1.78,12.2,3.19,18.62,4.06.17-1.09.27-2.19.27-3.3,0-.62-.03-1.24-.09-1.86Z"/>
    <path class="cls-28" d="m323.57,845.03c-30.75-1.96-61.99-2.21-92.93-4.08-4.87-1.08-17.84,1.08-16.22-1.08,4.87-7.54,11.35-16.15,19.46-23.69,6.49-5.38,14.6-15.08,22.71-19.38,24.33-11.84,35.68-29.07,50.28-46.3.52-.54,1.05-1.09,1.58-1.64l-45.62-290.27c-8.72-1.58-16.93-3.99-24.09-7.44-25.82-12.1-4.7-33.64,15.4-47.83L196.01,33.34l-38.59,256.21c5.81,7.19,13.03,14.04,19.69,21.62,6.49,6.46,4.87,12.92,1.62,18.31-6.49,12.92-14.6,30.15,1.62,40.92-8.11,0-12.98-4.31-14.6-6.46-3.24-6.46-12.98-9.69-14.6-14-.59-3.67-.96-7.32-1.19-10.95l-26.79,177.91c2.2,2.49,4.48,4.99,6.89,7.48,11.35,10.77,14.6,21.54,19.46,33.38-12.7,0-23.4,3.96-33.68,7.74l-16.21,107.61c10.49-1.06,20.96-.85,30.42.94,9.73,2.15,17.84,5.38,29.2,4.31,4.87-2.15,4.87-7.54,9.73-8.61,9.73-2.15,22.71,5.38,25.95,14,1.62,3.23,12.98,2.15,21.09,2.15-3.24,2.15-6.49,4.31-11.35,4.31-29.2,1.08-56.77,4.31-81.1,17.23-4.87,2.15-19.46,0-22.71,3.23-2.48,2.31-5.13,4.5-7.88,6.61l-54.63,362.73h322.12l-36.93-234.97Z"/>
    <path class="cls-10" d="m1252.67,930.51c-19.57-1.25-39.44-1.41-59.12-2.6-3.1-.69-11.35.69-10.32-.69,3.1-4.8,7.22-10.28,12.38-15.07,4.13-3.43,9.29-9.59,14.45-12.33,15.48-7.54,22.7-18.5,31.99-29.46.33-.35.67-.69,1-1.04l-29.02-184.67c-5.55-1.01-10.77-2.54-15.32-4.73-16.43-7.7-2.99-21.4,9.8-30.43l-36.99-235.39-24.55,163c3.7,4.57,8.29,8.93,12.53,13.76,4.13,4.11,3.1,8.22,1.03,11.65-4.13,8.22-9.29,19.18,1.03,26.03-5.16,0-8.26-2.74-9.29-4.11-2.06-4.11-8.26-6.17-9.29-8.91-.38-2.33-.61-4.65-.75-6.97l-17.05,113.19c1.4,1.58,2.85,3.17,4.39,4.76,7.22,6.85,9.29,13.7,12.38,21.24-8.08,0-14.89,2.52-21.43,4.93l-10.31,68.46c6.68-.68,13.33-.54,19.35.6,6.19,1.37,11.35,3.43,18.58,2.74,3.1-1.37,3.1-4.8,6.19-5.48,6.19-1.37,14.45,3.43,16.51,8.91,1.03,2.06,8.26,1.37,13.42,1.37-2.06,1.37-4.13,2.74-7.22,2.74-18.58.69-36.12,2.74-51.6,10.96-3.1,1.37-12.38,0-14.45,2.06-1.58,1.47-3.27,2.87-5.01,4.21l-34.76,230.78h204.94l-23.49-149.49Z"/>
    <path class="cls-23" d="m1815.25,884.12c-25.64-1.64-51.68-1.85-77.47-3.4-4.06-.9-14.87.9-13.52-.9,4.06-6.28,9.47-13.46,16.23-19.75,5.41-4.49,12.17-12.57,18.93-16.16,20.28-9.87,29.75-24.24,41.92-38.6.43-.45.88-.91,1.32-1.37l-38.03-241.98c-7.27-1.32-14.11-3.32-20.08-6.2-21.53-10.09-3.92-28.05,12.84-39.87l-48.47-308.43-32.17,213.58c4.85,5.99,10.86,11.7,16.42,18.03,5.41,5.39,4.06,10.77,1.35,15.26-5.41,10.77-12.17,25.13,1.35,34.11-6.76,0-10.82-3.59-12.17-5.39-2.7-5.39-10.82-8.08-12.17-11.67-.49-3.06-.8-6.1-.99-9.13l-22.34,148.31c1.84,2.08,3.73,4.16,5.75,6.24,9.47,8.98,12.17,17.95,16.23,27.83-10.58,0-19.51,3.3-28.08,6.45l-13.51,89.71c8.75-.89,17.47-.71,25.36.79,8.11,1.8,14.87,4.49,24.34,3.59,4.06-1.8,4.06-6.28,8.11-7.18,8.11-1.8,18.93,4.49,21.63,11.67,1.35,2.69,10.82,1.8,17.58,1.8-2.7,1.8-5.41,3.59-9.47,3.59-24.34.9-47.33,3.59-67.61,14.36-4.06,1.8-16.23,0-18.93,2.69-2.07,1.92-4.28,3.75-6.57,5.51l-45.54,302.38h268.53l-30.78-195.88Z"/>
  </g>
  <g id="Calque_4" data-name="Calque 4">
    <path class="cls-19" d="m965,868c17-8,37-11,46-28,5-9,3-22,12-27,11-5,24-6,38-8,9-1,15-10,23-15,11-6,20-13,17-28-3.34-20.86-8.76-39.64-12.79-59.23-7.85,5.73-15.87,10.99-24.09,15.81.59,8.26,2.23,16.7,4.88,25.43,13,36-34,42-61,42-4,0-7,4-7,4-2,24-10,51-38,55-2,0-4,4-6,4-12.83,3.77-22.8,12.67-25.21,24.11,7.4.62,14.77,1.1,22.13,1.5h7.58c.66-2.55,1.36-5.01,3.5-6.62Z"/>
  </g>
  <g id="Calque_6" data-name="Calque 6">
    <path class="cls-9" d="m418,439c20-5,40-6,60-13,5-2,11-2,16-4,8-3,17-3,25,0,7,2,13,6,21,7,2,1,4,4,7,5,10,4,22,1,32,5,35,14,74,36,112,22,29-10,60-11,89-23,17-7,38,3,58,6,9,1,17-1,26-3,19.42-5.07,38.12-3.7,56.71.45.67-.93,1.29-1.87,1.83-2.82-10.54-5.05-22.84-5.85-34.54-6.63-42-5-81-13-123-23-17-3-33-3-49-4-2,0-3,3-5,3-4,0-9-1-11,1-5,4-8,12-14,12-16,1-33,7-47-1-8-5-18-5-23-11-18-22-45-22-69-24-23-2-45,1-68,7-14,3-27,7-41,11-8,3-17,6-26,7-19.72,2.57-39.44.74-58.53,5.21-2,3.71-3.06,7.51-3.06,11.37,0,2.55.47,5.08,1.35,7.57,5.66,2.97,11.42,5.63,17.23,7.86,15,5,33,2,49-3Z"/>
    <path class="cls-8" d="m1619,400c3,0,8,5,12,7,7,5,15,8,23,10,44,10,97,31,135-8,13-14,36-14,56-11,6,0,12,4,17,5,46,6,91,0,137,2,11.1.43,22.2.13,33.22.11-9.15-2.63-18.19-5.75-27.22-8.11-54-15-106-22-162-15-11,2-20-5-29-12-7-6-10-18-18-21-15-4-30-14-45-10-11,3-22,5-32,6-31,3-59,10-90,16-33,6-62,17-92,30-17.98,8.6-38.4,2.53-58.88,2.82-.32.9-.6,1.8-.82,2.7,47.39,3.55,94.14-.11,141.7,3.48Z"/>
    <path class="cls-25" d="m554,139c-46,8-92,8-138,4-7-1-16-6-24-8-63-9-127,8-186-20-5-2-11-1-16-3-7-3-13-6-20-10-3-1-7,0-10,0-2-1-4-4-4-4-47-5-93-2-140,8-10,2-16,17-27,19-57.83,10.84-114.03,6.99-170.81,14.27-1.78,1.59-3.29,3.19-4.52,4.81,37.8,4.76,77.54-7.95,113.33,13.92,15,9,36,12,52,5,17-7,37-2,54-8,2,0,3-3,6-4,12-1,23,0,36-2,22-3,44-4,66,3,17,5,33,10,49,16,15,5,31,7,47,10,21,4,42-12,63-5,4,2,9,3,15,4v3c13,5,26,4,40,8,21,4,40-4,61-6,9,0,16-6,25-6-1-3,4-3,4-3,17-8,35-5,54-9,12-3,23,4,35,0,3,0,6-3,9-3,13-2,26-5,38-12,10-6,21-11,31-15,6.05-2.42,13.57-.45,20.33-.29-1.98-1.27-4.13-2.52-6.45-3.76-23.86,2.84-47.43,4.42-71.88,9.04Z"/>
  </g>
</svg>